<?xml version="1.0" encoding="utf-8"?>
<!-- Generator: Adobe Illustrator 19.1.1, SVG Export Plug-In . SVG Version: 6.00 Build 0)  -->
<svg version="1.1" id="Layer_1" xmlns="http://www.w3.org/2000/svg" xmlns:xlink="http://www.w3.org/1999/xlink" x="0px" y="0px"
	 viewBox="-442 241 74.3 80" style="enable-background:new -442 241 74.3 80;" xml:space="preserve">
<style type="text/css">
	.st0{opacity:0.7;}
</style>
<path class="st0" d="M-411.4,288.4c-0.1-4.5-0.3-9.1-0.4-13.6c-0.1-2.5-0.2-5.1-0.3-7.6c-0.2-3.7-0.4-7.5-0.6-11.2
	c0-0.6,0-1.2-0.1-1.8c0-0.4,0.1-0.5,0.5-0.6c2-0.2,3.9-0.5,5.9-0.5c2.5,0,5,0.2,7.5,0.3c0.5,0,1.1,0.2,1.6,0.2
	c0.4,0,0.5,0.2,0.5,0.6c-0.2,2.8-0.4,5.8-0.5,8.7c-0.2,3.1-0.3,6.2-0.5,9.4c-0.2,5.2-0.3,10.3-0.4,15.5c0,0.2,0,0.5,0,0.7
	c0.1,0,0.1,0,0.2,0c1.1-10.6,2.2-21.1,3.3-31.8c2,0.5,4,1.2,5.9,2.2c-1.2,4-2.3,8-3.5,12c0.1,0,0.2,0.1,0.2,0.1
	c1.4-2.9,2.8-5.8,4.3-8.9c1,0.8,2.1,1.6,3.1,2.4c5.3,4.7,8.5,10.6,10.2,17.4c0.5,2.2,0.8,4.4,1.2,6.6c0.1,0.3,0.2,0.7,0.4,1
	c1.4,1.6,2.6,3.3,3.3,5.4c0.6,1.8,0.3,3.5-0.9,5c-1.2,1.6-2.8,2.6-4.5,3.5c-3.2,1.7-6.7,2.7-10.3,3.5c-4,0.9-8.1,1.5-12.1,1.7
	c-3.6,0.2-7.2,0.3-10.8,0.2c-4.7-0.1-9.4-0.6-14.1-1.5c-3.4-0.7-6.7-1.5-9.9-2.8c-1.9-0.8-3.8-1.8-5.4-3.1c-1.4-1.2-2.5-2.5-2.7-4.4
	c-0.2-1,0.1-2,0.5-3c0.7-1.7,1.8-3.1,3-4.5c0.2-0.2,0.4-0.6,0.4-0.9c0.7-6.4,2.4-12.4,5.9-17.8c2.1-3.3,4.8-6.1,8-8.3
	c0.1-0.1,0.3-0.2,0.4-0.3c0.1,0,0.1,0,0.2-0.1c1.4,2.9,2.8,5.9,4.2,8.8c0.1,0,0.2-0.1,0.2-0.1c-1.1-4-2.3-8-3.5-12.1
	c2-0.7,4-1.4,6-2.2c1.1,10.7,2.2,21.3,3.3,31.9C-411.6,288.4-411.5,288.4-411.4,288.4z M-373.9,293.5c-3.1,2.4-5.6,3.6-8.9,4.5
	c-5.7,1.5-11.6,2.1-17.4,2.2c-3.6,0.1-7.1,0-10.7-0.1c-4.5-0.1-9-0.5-13.4-1.5c-4.3-1-8.4-2.2-11.7-5.4c0.4,0.6,0.9,1.2,1.4,1.7
	c1.6,1.6,3.6,2.8,5.6,3.7c4.2,1.8,8.6,2.8,13.1,3.3c3.9,0.5,7.9,0.7,11.8,0.6c5.1,0,10.2-0.4,15.2-1.4c3.7-0.8,7.4-1.9,10.7-3.8
	C-376.6,296.3-375,295.2-373.9,293.5z"/>
</svg>
