<?xml version="1.0" encoding="utf-8"?>
<!-- Generator: Adobe Illustrator 19.1.1, SVG Export Plug-In . SVG Version: 6.00 Build 0)  -->
<svg version="1.1" id="Layer_1" xmlns="http://www.w3.org/2000/svg" xmlns:xlink="http://www.w3.org/1999/xlink" x="0px" y="0px"
	 viewBox="0 0 298.2 220" style="enable-background:new 0 0 298.2 220;" xml:space="preserve">
<style type="text/css">
	.st0{fill:#009FE3;}
	.st1{fill:#808080;}
	.st2{fill:#FFFFFF;}
	.st3{opacity:0.8;fill:#C6C6C6;}
	.st4{opacity:0.5;fill:#C6C6C6;}
	.st5{opacity:0.8;fill:#808080;}
	.st6{opacity:0.5;fill:#808080;}
	.st7{opacity:0.8;fill:#FFFFFF;}
	.st8{opacity:0.5;fill:#FFFFFF;}
	.st9{fill:#1E2022;}
	.st10{opacity:0.8;fill:#1E2022;}
	.st11{opacity:0.5;fill:#1E2022;}
	.st12{fill:#1A1A1A;}
	.st13{fill:#000014;}
</style>
<g>
	<path class="st2" d="M35.7,203.4h-7.8l-10.6-12.7v12.7h-6.7v-40.8h6.7V187l9.2-12h7.7l-10.8,13.8L35.7,203.4z"/>
	<path class="st2" d="M61.5,189.2c0,2.1-0.4,4.1-1.1,5.9c-0.7,1.8-1.7,3.4-3,4.7s-2.8,2.4-4.5,3.1c-1.7,0.8-3.6,1.2-5.5,1.2
		c-2,0-3.8-0.4-5.5-1.2c-1.7-0.8-3.2-1.8-4.5-3.2c-1.3-1.3-2.3-2.9-3-4.7c-0.7-1.8-1.1-3.8-1.1-5.9c0-2.1,0.4-4,1.1-5.8
		c0.7-1.8,1.8-3.4,3-4.8c1.3-1.4,2.8-2.4,4.5-3.2c1.7-0.8,3.5-1.2,5.4-1.2c2,0,3.8,0.4,5.5,1.2c1.7,0.8,3.2,1.8,4.5,3.1
		c1.3,1.3,2.3,2.9,3,4.7C61.2,185.1,61.5,187.1,61.5,189.2z M54.9,189.2c0-1.2-0.2-2.3-0.6-3.4c-0.4-1-0.9-2-1.6-2.8
		c-0.7-0.8-1.5-1.4-2.4-1.8c-0.9-0.4-1.9-0.7-2.9-0.7c-1,0-2,0.2-2.9,0.7c-0.9,0.4-1.7,1.1-2.4,1.8c-0.7,0.8-1.2,1.7-1.6,2.8
		c-0.4,1-0.6,2.2-0.6,3.4s0.2,2.3,0.6,3.4c0.4,1,0.9,2,1.6,2.8c0.7,0.8,1.5,1.4,2.4,1.8c0.9,0.4,1.9,0.7,2.9,0.7c1,0,2-0.2,2.9-0.7
		c0.9-0.4,1.7-1.1,2.4-1.8c0.7-0.8,1.2-1.7,1.6-2.8C54.7,191.5,54.9,190.4,54.9,189.2z"/>
	<path class="st2" d="M87.4,203.4h-6.6v-17c0-1-0.1-1.9-0.4-2.7c-0.3-0.8-0.7-1.4-1.2-1.9c-0.5-0.5-1-0.9-1.7-1.1
		c-0.6-0.2-1.3-0.4-2-0.4c-1,0-2,0.2-3,0.6c-1,0.4-1.9,1-2.7,1.8v20.7h-6.6V175h6.6l0,2.1c0.4-0.4,0.9-0.8,1.5-1.2
		c0.6-0.4,1.2-0.7,1.8-0.9c0.6-0.2,1.3-0.4,1.9-0.6c0.7-0.1,1.3-0.2,1.9-0.2c1.3,0,2.6,0.2,3.9,0.7c1.2,0.5,2.3,1.2,3.3,2.1
		c1,1,1.7,2.2,2.3,3.7c0.6,1.5,0.9,3.3,0.9,5.4V203.4z"/>
	<path class="st2" d="M109.5,195.4c0,1.4-0.3,2.7-0.9,3.8c-0.6,1.1-1.4,2-2.4,2.8c-1,0.7-2.1,1.3-3.3,1.7c-1.2,0.4-2.4,0.6-3.6,0.6
		c-2,0-3.9-0.4-5.6-1.2c-1.7-0.8-3.2-2.1-4.5-3.9l4-4.3c0.8,1.1,1.7,1.9,2.7,2.5c1,0.6,2.1,0.9,3.3,0.9c1,0,1.9-0.2,2.6-0.6
		c0.7-0.4,1-1,1-1.8c0-0.9-0.5-1.6-1.5-2.1c-1-0.6-2.3-1.1-4.1-1.7c-1-0.3-2-0.7-3-1.3c-1-0.5-1.8-1.1-2.6-1.9
		c-0.8-0.7-1.4-1.6-1.8-2.5c-0.5-1-0.7-2-0.7-3.3c0-1.4,0.3-2.6,0.9-3.7c0.6-1.1,1.4-2,2.3-2.8c1-0.7,2.1-1.3,3.3-1.7
		c1.2-0.4,2.5-0.6,3.7-0.6c4,0,7.3,1.6,9.9,4.9l-3.9,4.3c-0.8-1-1.6-1.8-2.6-2.4c-1-0.6-2-0.9-3.2-0.9c-0.4,0-0.8,0.1-1.3,0.2
		c-0.4,0.1-0.9,0.3-1.2,0.5c-0.4,0.2-0.7,0.5-0.9,0.8c-0.2,0.3-0.4,0.7-0.4,1.2c0,0.8,0.5,1.4,1.4,2c0.9,0.6,2.3,1.1,4,1.7
		c1.1,0.4,2.2,0.8,3.2,1.4c1,0.6,1.9,1.2,2.7,1.9c0.8,0.7,1.4,1.6,1.8,2.5C109.3,193.2,109.5,194.2,109.5,195.4z"/>
	<path class="st2" d="M126,202.7c-0.7,0.5-1.4,0.8-2.3,1c-0.9,0.2-1.8,0.3-2.7,0.3c-1.6,0-2.9-0.2-3.9-0.6c-1.1-0.4-1.9-1-2.6-1.9
		c-0.6-0.9-1.1-1.9-1.4-3.2c-0.3-1.3-0.4-2.9-0.4-4.6v-12.4h-3.5v-3.2c2.1-1,3.9-2.4,5.2-4.2c1.3-1.9,2.2-4.3,2.7-7.3h2.1v8.3h6.7
		v6.4h-6.7v12.9c0,0.7,0.1,1.3,0.3,1.8c0.2,0.5,0.4,0.8,0.7,1.1s0.6,0.4,0.9,0.5c0.3,0.1,0.7,0.1,1.1,0.1c0.5,0,1.1-0.1,1.9-0.3
		c0.7-0.2,1.4-0.5,1.9-1V202.7z"/>
	<path class="st2" d="M146.6,177.9l-3.5,6c-0.6-0.8-1.3-1.4-2.1-2s-1.6-0.9-2.4-0.9c-0.4,0-0.9,0.1-1.4,0.3s-1,0.6-1.4,1.1
		c-0.4,0.5-0.8,1.1-1.1,1.9c-0.3,0.8-0.5,1.8-0.5,3v16h-6.6V175h6.6v3c0.8-1.2,1.7-2.1,2.6-2.8s2-1,3.2-1c1.2,0,2.3,0.3,3.4,1
		C144.6,175.9,145.6,176.8,146.6,177.9z"/>
	<path class="st2" d="M170.1,203.4h-6.6v-2.2c-0.4,0.5-0.9,0.9-1.5,1.2c-0.6,0.3-1.2,0.6-1.8,0.9c-0.6,0.2-1.3,0.4-1.9,0.6
		c-0.7,0.1-1.3,0.2-1.9,0.2c-1.3,0-2.6-0.2-3.9-0.7s-2.3-1.2-3.3-2.1c-0.9-1-1.7-2.2-2.3-3.7c-0.6-1.5-0.8-3.3-0.8-5.4V175h6.6v16.9
		c0,1,0.1,1.9,0.4,2.7c0.3,0.8,0.7,1.4,1.1,1.9c0.5,0.5,1,0.9,1.6,1.1c0.6,0.2,1.3,0.4,1.9,0.4c2.1,0,4-0.8,5.5-2.4V175h6.6V203.4z"
		/>
	<path class="st2" d="M197.3,174.9l-11.9,33.8c-0.9,2.5-2,4.3-3.5,5.5c-1.4,1.1-3.1,1.7-5.1,1.7c-0.3,0-0.6,0-1-0.1
		c-0.4,0-0.7-0.1-1.1-0.2l-2.2-6.6c0.5,0.3,1.1,0.5,1.6,0.6c0.5,0.1,1.1,0.2,1.6,0.2c1,0,2-0.3,2.8-0.8c0.9-0.5,1.5-1.4,2-2.8
		l0.9-2.9l-10.2-28.4h7.2l6.1,18.3l5.7-18.3H197.3z"/>
	<path class="st2" d="M225.2,189.1c0,0.5,0,0.9-0.1,1.4c0,0.5-0.1,1-0.2,1.5h-21.1c0.2,0.8,0.6,1.6,1,2.3c0.4,0.7,1,1.4,1.6,1.9
		c0.6,0.5,1.4,1,2.2,1.3c0.8,0.3,1.7,0.5,2.7,0.5c1.2,0,2.4-0.2,3.6-0.7c1.2-0.4,2.2-1,3-1.8l4.2,4.5c-1.8,1.5-3.6,2.5-5.4,3.1
		c-1.8,0.6-3.6,0.9-5.6,0.9c-2,0-3.8-0.4-5.6-1.2c-1.7-0.8-3.2-1.8-4.5-3.2c-1.3-1.3-2.3-2.9-3-4.7c-0.7-1.8-1.1-3.8-1.1-5.8
		c0-2.1,0.4-4,1.1-5.8c0.7-1.8,1.7-3.4,3-4.7c1.3-1.3,2.8-2.4,4.5-3.2c1.7-0.8,3.5-1.2,5.5-1.2c1.9,0,3.6,0.4,5.3,1.1
		c1.7,0.7,3.2,1.8,4.5,3.1c1.3,1.3,2.3,2.9,3.1,4.7C224.9,184.9,225.2,186.9,225.2,189.1z M218.3,186.4c-0.5-1.8-1.4-3.3-2.8-4.4
		c-1.3-1.1-2.8-1.6-4.5-1.6c-1.6,0-3.1,0.5-4.4,1.6c-1.3,1.1-2.2,2.5-2.7,4.4H218.3z"/>
	<path class="st2" d="M234.1,203.4h-7v-7.5h7V203.4z"/>
	<path class="st2" d="M261.8,189.2c0,2-0.3,3.9-0.9,5.7c-0.6,1.8-1.5,3.4-2.6,4.7c-1.1,1.4-2.5,2.4-4,3.2c-1.6,0.8-3.3,1.2-5.1,1.2
		c-1.2,0-2.2-0.2-3.3-0.5c-1-0.3-2-0.9-2.8-1.6l0,13.8h-6.6v-40.8h6.6l0,1.5c0.8-0.7,1.7-1.2,2.7-1.6c1.1-0.4,2.2-0.6,3.3-0.6
		c1.6,0,3.2,0.4,4.7,1.2c1.5,0.8,2.9,1.8,4.1,3.2c1.2,1.3,2.1,2.9,2.9,4.7C261.4,185.1,261.8,187.1,261.8,189.2z M255.1,189.3
		c0-1.3-0.2-2.6-0.6-3.6c-0.4-1.1-0.9-2-1.5-2.8c-0.7-0.8-1.4-1.4-2.3-1.8c-0.9-0.4-1.9-0.6-3-0.6c-0.7,0-1.5,0.2-2.4,0.5
		c-0.9,0.3-1.7,0.7-2.3,1.3v13.6c1.4,1.4,3,2.1,4.8,2.1c1,0,2-0.2,2.9-0.6c0.9-0.4,1.7-1,2.3-1.8c0.6-0.8,1.1-1.7,1.5-2.8
		C254.9,191.7,255.1,190.5,255.1,189.3z"/>
	<path class="st2" d="M290.9,189.1c0,0.5,0,0.9-0.1,1.4c0,0.5-0.1,1-0.2,1.5h-21.1c0.2,0.8,0.6,1.6,1,2.3c0.4,0.7,1,1.4,1.6,1.9
		c0.6,0.5,1.4,1,2.2,1.3c0.8,0.3,1.7,0.5,2.7,0.5c1.2,0,2.4-0.2,3.6-0.7c1.2-0.4,2.2-1,3-1.8l4.2,4.5c-1.8,1.5-3.6,2.5-5.4,3.1
		c-1.8,0.6-3.6,0.9-5.6,0.9c-2,0-3.8-0.4-5.6-1.2c-1.7-0.8-3.2-1.8-4.5-3.2c-1.3-1.3-2.3-2.9-3-4.7c-0.7-1.8-1.1-3.8-1.1-5.8
		c0-2.1,0.4-4,1.1-5.8c0.7-1.8,1.7-3.4,3-4.7c1.3-1.3,2.8-2.4,4.5-3.2c1.7-0.8,3.5-1.2,5.5-1.2c1.9,0,3.6,0.4,5.3,1.1
		c1.7,0.7,3.2,1.8,4.5,3.1c1.3,1.3,2.3,2.9,3.1,4.7C290.5,184.9,290.9,186.9,290.9,189.1z M284,186.4c-0.5-1.8-1.4-3.3-2.8-4.4
		c-1.3-1.1-2.8-1.6-4.5-1.6c-1.6,0-3.1,0.5-4.4,1.6c-1.3,1.1-2.2,2.5-2.7,4.4H284z"/>
	<g>
		<path class="st2" d="M110.5,144.4h-9.6c-4.7,0-8.4-3.8-8.4-8.4v-49c0-5.2,4.2-9.4,9.4-9.4h7.6c5.2,0,9.4,4.2,9.4,9.4v49
			C118.9,140.6,115.1,144.4,110.5,144.4z"/>
		<path class="st2" d="M142.1,144.4h-10.3c-4.5,0-8.1-3.6-8.1-8.1V33.8c0-5,4.1-9.1,9.1-9.1h8.3c5,0,9.1,4.1,9.1,9.1v102.6
			C150.1,140.8,146.5,144.4,142.1,144.4z"/>
		<path class="st2" d="M174,144.4h-10.9c-4.3,0-7.7-3.5-7.7-7.7V64.9c0-4.8,3.9-8.7,8.7-8.7h8.9c4.8,0,8.7,3.9,8.7,8.7v71.7
			C181.8,140.9,178.3,144.4,174,144.4z"/>
		<path class="st2" d="M106,75.1h-0.6c-0.3,0-0.5-0.2-0.5-0.5v-8.8c0-4.7,3.8-8.6,8.6-8.6h4.9c0.3,0,0.5,0.2,0.5,0.5v0.6
			c0,0.3-0.2,0.5-0.5,0.5h-4.9c-3.8,0-7,3.1-7,7v8.8C106.5,74.9,106.3,75.1,106,75.1z"/>
		<path class="st2" d="M168,52.4h-0.6c-0.3,0-0.5-0.2-0.5-0.5V17.6c0-3.4-2.7-6.1-6.1-6.1h-13.4c-3.4,0-6.1,2.7-6.1,6.1v3
			c0,0.3-0.2,0.5-0.5,0.5h-0.6c-0.3,0-0.5-0.2-0.5-0.5v-3c0-4.2,3.4-7.7,7.7-7.7h13.4c4.2,0,7.7,3.4,7.7,7.7v34.3
			C168.5,52.2,168.3,52.4,168,52.4z"/>
		<path class="st2" d="M161.3,142.7l16.8,13.3c0.8,0.6,1.9-0.1,1.7-1l-2.5-14L161.3,142.7z"/>
		<path class="st8" d="M114,54.3h-0.6c-0.3,0-0.5-0.2-0.5-0.5V22.8c0-3.3,2.7-5.9,5.9-5.9h11.5c2.6,0,4.7,2.1,4.7,4.7v0
			c0,0.3-0.2,0.5-0.5,0.5h-0.6c-0.3,0-0.5-0.2-0.5-0.5v0c0-1.7-1.4-3.1-3.1-3.1h-11.5c-2.4,0-4.3,1.9-4.3,4.3v30.9
			C114.5,54,114.3,54.3,114,54.3z"/>
	</g>
</g>
</svg>
