<?xml version="1.0" encoding="utf-8"?>
<!-- Generator: Adobe Illustrator 19.1.1, SVG Export Plug-In . SVG Version: 6.00 Build 0)  -->
<svg version="1.1" id="Layer_1" xmlns="http://www.w3.org/2000/svg" xmlns:xlink="http://www.w3.org/1999/xlink" x="0px" y="0px"
	 viewBox="0 0 414.6 144" style="enable-background:new 0 0 414.6 144;" xml:space="preserve">
<style type="text/css">
	.st0{fill:#009FE3;}
	.st1{fill:#808080;}
	.st2{fill:#FFFFFF;}
	.st3{opacity:0.8;fill:#C6C6C6;}
	.st4{opacity:0.5;fill:#C6C6C6;}
	.st5{opacity:0.8;fill:#808080;}
	.st6{opacity:0.5;fill:#808080;}
	.st7{opacity:0.8;fill:#FFFFFF;}
	.st8{opacity:0.5;fill:#FFFFFF;}
	.st9{fill:#1E2022;}
	.st10{opacity:0.8;fill:#1E2022;}
	.st11{opacity:0.5;fill:#1E2022;}
	.st12{fill:#1A1A1A;}
	.st13{fill:#000014;}
</style>
<g>
	<path class="st0" d="M57,96.7H46.8L32.9,80.1v16.6h-8.8V43.5h8.8v31.8l12-15.7h10l-14.1,18L57,96.7z"/>
	<path class="st0" d="M90.6,78.2c0,2.8-0.5,5.4-1.4,7.7c-1,2.4-2.3,4.4-3.9,6.2s-3.6,3.1-5.9,4.1c-2.2,1-4.6,1.5-7.2,1.5
		c-2.5,0-4.9-0.5-7.2-1.5c-2.2-1-4.2-2.4-5.8-4.1c-1.7-1.8-3-3.8-3.9-6.2c-1-2.4-1.4-4.9-1.4-7.7c0-2.7,0.5-5.2,1.5-7.6
		c1-2.4,2.3-4.4,4-6.2c1.7-1.8,3.6-3.2,5.8-4.2c2.2-1,4.6-1.5,7.1-1.5c2.5,0,4.9,0.5,7.2,1.5c2.2,1,4.2,2.4,5.9,4.1
		c1.7,1.7,3,3.8,3.9,6.2C90.2,72.9,90.6,75.4,90.6,78.2z M82,78.2c0-1.6-0.3-3.1-0.8-4.4c-0.5-1.4-1.2-2.6-2.1-3.6
		c-0.9-1-1.9-1.8-3.1-2.4c-1.2-0.6-2.5-0.9-3.8-0.9c-1.3,0-2.6,0.3-3.8,0.9c-1.2,0.6-2.2,1.4-3.1,2.4c-0.9,1-1.6,2.2-2.1,3.6
		c-0.5,1.4-0.8,2.8-0.8,4.4s0.3,3.1,0.8,4.4c0.5,1.4,1.2,2.6,2.1,3.6c0.9,1,1.9,1.8,3.1,2.4c1.2,0.6,2.5,0.9,3.8,0.9
		c1.3,0,2.6-0.3,3.8-0.9c1.2-0.6,2.2-1.4,3.1-2.4c0.9-1,1.6-2.2,2.1-3.6C81.8,81.2,82,79.7,82,78.2z"/>
	<path class="st0" d="M124.4,96.7h-8.6V74.6c0-1.3-0.2-2.5-0.6-3.5c-0.4-1-0.9-1.8-1.5-2.5c-0.6-0.7-1.4-1.2-2.2-1.5
		c-0.8-0.3-1.7-0.5-2.5-0.5c-1.3,0-2.6,0.2-3.9,0.7c-1.3,0.5-2.4,1.3-3.5,2.3v27H93v-37h8.6l0.1,2.8c0.5-0.6,1.2-1.1,1.9-1.5
		c0.8-0.5,1.5-0.9,2.4-1.2c0.8-0.3,1.6-0.6,2.5-0.7c0.9-0.2,1.7-0.3,2.5-0.3c1.7,0,3.4,0.3,5,0.9c1.6,0.6,3,1.5,4.3,2.8
		c1.3,1.2,2.3,2.8,3,4.8c0.8,2,1.1,4.3,1.1,7V96.7z"/>
	<path class="st0" d="M153.2,86.3c0,1.8-0.4,3.5-1.2,4.9c-0.8,1.4-1.8,2.6-3.1,3.6c-1.3,1-2.7,1.7-4.3,2.2c-1.6,0.5-3.2,0.7-4.7,0.7
		c-2.6,0-5-0.5-7.3-1.6c-2.2-1-4.2-2.7-5.8-5l5.2-5.6c1,1.4,2.2,2.5,3.6,3.3c1.4,0.8,2.8,1.2,4.4,1.2c1.3,0,2.5-0.3,3.4-0.8
		s1.3-1.3,1.3-2.4c0-1.1-0.6-2-1.9-2.8c-1.3-0.7-3.1-1.5-5.4-2.2c-1.4-0.4-2.7-1-3.9-1.6c-1.3-0.7-2.4-1.5-3.4-2.4
		c-1-1-1.8-2.1-2.4-3.3c-0.6-1.2-0.9-2.7-0.9-4.3c0-1.8,0.4-3.4,1.2-4.8c0.8-1.4,1.8-2.6,3-3.6c1.3-1,2.7-1.7,4.3-2.2
		c1.6-0.5,3.2-0.8,4.8-0.8c5.3,0,9.6,2.1,12.9,6.4l-5.1,5.6c-1-1.3-2.1-2.4-3.4-3.1c-1.3-0.8-2.7-1.2-4.2-1.2
		c-0.5,0-1.1,0.1-1.6,0.2c-0.6,0.2-1.1,0.4-1.6,0.6c-0.5,0.3-0.9,0.6-1.2,1.1c-0.3,0.4-0.5,0.9-0.5,1.5c0,1,0.6,1.8,1.8,2.6
		c1.2,0.7,2.9,1.5,5.2,2.2c1.5,0.5,2.9,1.1,4.2,1.8c1.3,0.7,2.5,1.6,3.5,2.5c1,1,1.8,2.1,2.4,3.3C152.9,83.4,153.2,84.8,153.2,86.3z
		"/>
	<path class="st0" d="M174.7,95.8c-0.9,0.6-1.9,1-3,1.3c-1.2,0.3-2.3,0.5-3.5,0.5c-2,0-3.7-0.3-5.1-0.8c-1.4-0.5-2.5-1.4-3.3-2.5
		c-0.8-1.1-1.4-2.5-1.8-4.2c-0.4-1.7-0.6-3.7-0.6-6V67.9h-4.5v-4.2c2.8-1.2,5-3.1,6.8-5.5s2.9-5.6,3.5-9.5h2.8v10.8h8.7v8.3h-8.7
		v16.9c0,0.9,0.1,1.7,0.3,2.3c0.2,0.6,0.5,1.1,0.9,1.4c0.4,0.3,0.8,0.6,1.2,0.7c0.5,0.1,0.9,0.2,1.5,0.2c0.7,0,1.5-0.1,2.4-0.4
		c1-0.3,1.8-0.7,2.4-1.3V95.8z"/>
	<path class="st0" d="M201.5,63.5l-4.6,7.8c-0.8-1-1.8-1.8-2.8-2.6c-1-0.7-2-1.1-3.1-1.1c-0.6,0-1.2,0.1-1.8,0.4s-1.3,0.7-1.8,1.4
		c-0.6,0.6-1.1,1.5-1.5,2.5c-0.4,1-0.6,2.3-0.6,3.9v20.9h-8.6v-37h8.6v4c1-1.6,2.2-2.8,3.4-3.7s2.7-1.3,4.2-1.3c1.5,0,3,0.4,4.4,1.3
		C198.9,60.9,200.3,62,201.5,63.5z"/>
	<path class="st0" d="M232.1,96.7h-8.6v-2.8c-0.6,0.6-1.2,1.1-1.9,1.6c-0.7,0.4-1.5,0.8-2.3,1.2c-0.8,0.3-1.6,0.6-2.5,0.7
		c-0.9,0.2-1.7,0.3-2.4,0.3c-1.7,0-3.4-0.3-5-0.9c-1.6-0.6-3-1.5-4.3-2.8c-1.2-1.2-2.2-2.8-3-4.8c-0.7-2-1.1-4.3-1.1-7V59.6h8.6v22
		c0,1.3,0.2,2.5,0.6,3.5c0.4,1,0.9,1.8,1.5,2.5c0.6,0.7,1.3,1.2,2.1,1.5c0.8,0.3,1.7,0.5,2.5,0.5c2.8,0,5.2-1,7.2-3.1V59.6h8.6V96.7
		z"/>
	<path class="st0" d="M267.5,59.6l-15.5,44c-1.2,3.3-2.7,5.7-4.5,7.1c-1.9,1.5-4.1,2.2-6.7,2.2c-0.4,0-0.8,0-1.3-0.1
		c-0.5-0.1-0.9-0.2-1.4-0.3l-2.9-8.6c0.7,0.3,1.4,0.6,2.1,0.8c0.7,0.2,1.4,0.3,2,0.3c1.3,0,2.6-0.3,3.7-1c1.1-0.7,2-1.9,2.6-3.7
		l1.2-3.7l-13.3-37h9.4l7.9,23.8l7.4-23.8H267.5z"/>
	<path class="st0" d="M304,78.1c0,0.6,0,1.2-0.1,1.9c-0.1,0.6-0.1,1.3-0.2,2h-27.5c0.3,1.1,0.8,2.1,1.3,3c0.6,1,1.3,1.8,2.1,2.5
		c0.8,0.7,1.8,1.3,2.8,1.7c1.1,0.4,2.2,0.6,3.5,0.6c1.5,0,3.1-0.3,4.6-0.9c1.5-0.6,2.8-1.4,3.9-2.3l5.4,5.8c-2.4,1.9-4.7,3.3-7,4.1
		s-4.7,1.2-7.2,1.2c-2.6,0-5-0.5-7.2-1.5c-2.2-1-4.2-2.4-5.8-4.2c-1.6-1.8-3-3.8-3.9-6.2s-1.4-4.9-1.4-7.6s0.5-5.2,1.4-7.6
		c1-2.4,2.3-4.4,3.9-6.2c1.7-1.8,3.6-3.1,5.8-4.2c2.2-1,4.6-1.5,7.2-1.5c2.4,0,4.7,0.5,7,1.4c2.2,1,4.2,2.3,5.9,4
		c1.7,1.7,3.1,3.7,4.1,6.1C303.5,72.6,304,75.2,304,78.1z M295,74.5c-0.7-2.3-1.9-4.2-3.6-5.7c-1.7-1.4-3.7-2.1-5.9-2.1
		c-2.1,0-4.1,0.7-5.8,2.1c-1.7,1.4-2.9,3.3-3.6,5.7H295z"/>
	<path class="st1" d="M315.5,96.7h-9.1v-9.8h9.1V96.7z"/>
	<path class="st1" d="M351.6,78.2c0,2.6-0.4,5.1-1.2,7.4s-2,4.4-3.4,6.2c-1.5,1.8-3.2,3.2-5.3,4.2c-2,1-4.3,1.6-6.7,1.6
		c-1.5,0-2.9-0.2-4.2-0.7c-1.3-0.4-2.5-1.2-3.7-2.1l0.1,17.9h-8.6V59.6h8.6l0.1,1.9c1-0.9,2.2-1.5,3.5-2.1c1.4-0.5,2.8-0.8,4.3-0.8
		c2.1,0,4.2,0.5,6.1,1.5c2,1,3.8,2.4,5.3,4.1c1.5,1.8,2.8,3.8,3.7,6.2C351.2,72.9,351.6,75.4,351.6,78.2z M342.9,78.3
		c0-1.8-0.2-3.3-0.7-4.7c-0.5-1.4-1.1-2.6-2-3.6c-0.9-1-1.9-1.8-3.1-2.3c-1.2-0.5-2.5-0.8-3.9-0.8c-0.9,0-2,0.2-3.1,0.6
		c-1.2,0.4-2.2,1-3,1.6v17.8c1.9,1.8,4,2.8,6.3,2.8c1.4,0,2.6-0.3,3.8-0.8c1.2-0.6,2.2-1.3,3-2.3s1.5-2.2,2-3.6
		C342.6,81.4,342.9,79.9,342.9,78.3z"/>
	<path class="st1" d="M389.6,78.1c0,0.6,0,1.2-0.1,1.9c-0.1,0.6-0.1,1.3-0.2,2h-27.5c0.3,1.1,0.8,2.1,1.3,3c0.6,1,1.3,1.8,2.1,2.5
		c0.8,0.7,1.8,1.3,2.8,1.7c1.1,0.4,2.2,0.6,3.5,0.6c1.5,0,3.1-0.3,4.6-0.9c1.5-0.6,2.8-1.4,3.9-2.3l5.4,5.8c-2.4,1.9-4.7,3.3-7,4.1
		s-4.7,1.2-7.2,1.2c-2.6,0-5-0.5-7.2-1.5c-2.2-1-4.2-2.4-5.8-4.2c-1.6-1.8-3-3.8-3.9-6.2s-1.4-4.9-1.4-7.6s0.5-5.2,1.4-7.6
		c1-2.4,2.3-4.4,3.9-6.2c1.7-1.8,3.6-3.1,5.8-4.2c2.2-1,4.6-1.5,7.2-1.5c2.4,0,4.7,0.5,7,1.4c2.2,1,4.2,2.3,5.9,4
		c1.7,1.7,3.1,3.7,4.1,6.1C389.1,72.6,389.6,75.2,389.6,78.1z M380.6,74.5c-0.7-2.3-1.9-4.2-3.6-5.7c-1.7-1.4-3.7-2.1-5.9-2.1
		c-2.1,0-4.1,0.7-5.8,2.1c-1.7,1.4-2.9,3.3-3.6,5.7H380.6z"/>
</g>
</svg>
