<?xml version="1.0" encoding="utf-8"?>
<!-- Generator: Adobe Illustrator 20.1.0, SVG Export Plug-In . SVG Version: 6.00 Build 0)  -->
<svg version="1.1" id="Layer_1" xmlns="http://www.w3.org/2000/svg" xmlns:xlink="http://www.w3.org/1999/xlink" x="0px" y="0px"
	 viewBox="0 0 429.5 176.9" style="enable-background:new 0 0 429.5 176.9;" xml:space="preserve">
<style type="text/css">
	.st0{fill:#009FE3;}
	.st1{fill:#808080;}
	.st2{opacity:0.8;fill:#808080;enable-background:new    ;}
	.st3{opacity:0.5;fill:#808080;enable-background:new    ;}
</style>
<g>
	<path class="st0" d="M157.6,109.8h-7.8l-10.6-12.7v12.7h-6.7V69.1h6.7v24.4l9.2-12h7.7l-10.8,13.8L157.6,109.8z"/>
	<path class="st0" d="M183.4,95.6c0,2.1-0.4,4.1-1.1,5.9c-0.7,1.8-1.7,3.4-3,4.7c-1.3,1.3-2.8,2.4-4.5,3.1c-1.7,0.8-3.6,1.2-5.5,1.2
		c-2,0-3.8-0.4-5.5-1.2c-1.7-0.8-3.2-1.8-4.5-3.2c-1.3-1.3-2.3-2.9-3-4.7c-0.7-1.8-1.1-3.8-1.1-5.9s0.4-4,1.1-5.8
		c0.7-1.8,1.8-3.4,3-4.8c1.3-1.4,2.8-2.4,4.5-3.2c1.7-0.8,3.5-1.2,5.4-1.2c2,0,3.8,0.4,5.5,1.2c1.7,0.8,3.2,1.8,4.5,3.1
		c1.3,1.3,2.3,2.9,3,4.7C183,91.5,183.4,93.5,183.4,95.6z M176.8,95.6c0-1.2-0.2-2.3-0.6-3.4c-0.4-1-0.9-2-1.6-2.8
		c-0.7-0.8-1.5-1.4-2.4-1.8s-1.9-0.7-2.9-0.7s-2,0.2-2.9,0.7c-0.9,0.4-1.7,1.1-2.4,1.8c-0.7,0.8-1.2,1.7-1.6,2.8
		c-0.4,1-0.6,2.2-0.6,3.4c0,1.2,0.2,2.3,0.6,3.4c0.4,1,0.9,2,1.6,2.8c0.7,0.8,1.5,1.4,2.4,1.8s1.9,0.7,2.9,0.7s2-0.2,2.9-0.7
		c0.9-0.4,1.7-1.1,2.4-1.8c0.7-0.8,1.2-1.7,1.6-2.8C176.6,98,176.8,96.8,176.8,95.6z"/>
	<path class="st0" d="M209.3,109.8h-6.6v-17c0-1-0.1-1.9-0.4-2.7c-0.3-0.8-0.7-1.4-1.2-1.9s-1-0.9-1.7-1.1c-0.6-0.2-1.3-0.4-2-0.4
		c-1,0-2,0.2-3,0.6s-1.9,1-2.7,1.8v20.7h-6.6V81.4h6.6v2.1c0.4-0.4,0.9-0.8,1.5-1.2c0.6-0.4,1.2-0.7,1.8-0.9
		c0.6-0.2,1.3-0.4,1.9-0.6c0.7-0.1,1.3-0.2,1.9-0.2c1.3,0,2.6,0.2,3.9,0.7s2.3,1.2,3.3,2.1c1,1,1.7,2.2,2.3,3.7s0.9,3.3,0.9,5.4
		v17.3H209.3z"/>
	<path class="st0" d="M231.4,101.9c0,1.4-0.3,2.7-0.9,3.8c-0.6,1.1-1.4,2-2.4,2.8c-1,0.7-2.1,1.3-3.3,1.7c-1.2,0.4-2.4,0.6-3.6,0.6
		c-2,0-3.9-0.4-5.6-1.2c-1.7-0.8-3.2-2.1-4.5-3.9l4-4.3c0.8,1.1,1.7,1.9,2.7,2.5s2.1,0.9,3.3,0.9c1,0,1.9-0.2,2.6-0.6s1-1,1-1.8
		c0-0.9-0.5-1.6-1.5-2.1c-1-0.6-2.3-1.1-4.1-1.7c-1-0.3-2-0.7-3-1.3c-1-0.5-1.8-1.1-2.6-1.9c-0.8-0.7-1.4-1.6-1.8-2.5
		c-0.5-1-0.7-2-0.7-3.3c0-1.4,0.3-2.6,0.9-3.7c0.6-1.1,1.4-2,2.3-2.8c1-0.7,2.1-1.3,3.3-1.7c1.2-0.4,2.5-0.6,3.7-0.6
		c4,0,7.3,1.6,9.9,4.9l-3.9,4.3c-0.8-1-1.6-1.8-2.6-2.4s-2-0.9-3.2-0.9c-0.4,0-0.8,0.1-1.3,0.2c-0.4,0.1-0.9,0.3-1.2,0.5
		c-0.4,0.2-0.7,0.5-0.9,0.8s-0.4,0.7-0.4,1.2c0,0.8,0.5,1.4,1.4,2s2.3,1.1,4,1.7c1.1,0.4,2.2,0.8,3.2,1.4s1.9,1.2,2.7,1.9
		c0.8,0.7,1.4,1.6,1.8,2.5C231.2,99.6,231.4,100.7,231.4,101.9z"/>
	<path class="st0" d="M247.9,109.2c-0.7,0.5-1.4,0.8-2.3,1c-0.9,0.2-1.8,0.3-2.7,0.3c-1.6,0-2.9-0.2-3.9-0.6c-1.1-0.4-1.9-1-2.6-1.9
		c-0.6-0.9-1.1-1.9-1.4-3.2c-0.3-1.3-0.4-2.9-0.4-4.6V87.7h-3.5v-3.2c2.1-1,3.9-2.4,5.2-4.2s2.2-4.3,2.7-7.3h2.1v8.3h6.7v6.4h-6.7
		v12.9c0,0.7,0.1,1.3,0.3,1.8s0.4,0.8,0.7,1.1s0.6,0.4,0.9,0.5c0.3,0.1,0.7,0.1,1.1,0.1c0.5,0,1.1-0.1,1.9-0.3
		c0.7-0.2,1.4-0.5,1.9-1V109.2z"/>
	<path class="st0" d="M268.5,84.3l-3.5,6c-0.6-0.8-1.3-1.4-2.1-2c-0.8-0.6-1.6-0.9-2.4-0.9c-0.4,0-0.9,0.1-1.4,0.3s-1,0.6-1.4,1.1
		s-0.8,1.1-1.1,1.9s-0.5,1.8-0.5,3v16h-6.6V81.4h6.6v3c0.8-1.2,1.7-2.1,2.6-2.8s2-1,3.2-1s2.3,0.3,3.4,1
		C266.5,82.3,267.5,83.2,268.5,84.3z"/>
	<path class="st0" d="M291.9,109.8h-6.6v-2.2c-0.4,0.5-0.9,0.9-1.5,1.2c-0.6,0.3-1.2,0.6-1.8,0.9c-0.6,0.2-1.3,0.4-1.9,0.6
		c-0.7,0.1-1.3,0.2-1.9,0.2c-1.3,0-2.6-0.2-3.9-0.7c-1.2-0.5-2.3-1.2-3.3-2.1c-0.9-1-1.7-2.2-2.3-3.7c-0.6-1.5-0.8-3.3-0.8-5.4V81.4
		h6.6v16.9c0,1,0.1,1.9,0.4,2.7c0.3,0.8,0.7,1.4,1.1,1.9c0.5,0.5,1,0.9,1.6,1.1s1.3,0.4,1.9,0.4c2.1,0,4-0.8,5.5-2.4V81.4h6.6v28.4
		H291.9z"/>
	<path class="st0" d="M319.1,81.3l-11.9,33.8c-0.9,2.5-2,4.3-3.5,5.5c-1.4,1.1-3.1,1.7-5.1,1.7c-0.3,0-0.6,0-1-0.1
		c-0.4,0-0.7-0.1-1.1-0.2l-2.2-6.6c0.5,0.3,1.1,0.5,1.6,0.6s1.1,0.2,1.6,0.2c1,0,2-0.3,2.8-0.8c0.9-0.5,1.5-1.4,2-2.8l0.9-2.9
		L293,81.3h7.2l6.1,18.3l5.7-18.3H319.1L319.1,81.3z"/>
	<path class="st0" d="M347.1,95.6c0,0.5,0,0.9-0.1,1.4c0,0.5-0.1,1-0.2,1.5h-21.1c0.2,0.8,0.6,1.6,1,2.3c0.4,0.7,1,1.4,1.6,1.9
		s1.4,1,2.2,1.3c0.8,0.3,1.7,0.5,2.7,0.5c1.2,0,2.4-0.2,3.6-0.7c1.2-0.4,2.2-1,3-1.8l4.2,4.5c-1.8,1.5-3.6,2.5-5.4,3.1
		s-3.6,0.9-5.6,0.9s-3.8-0.4-5.6-1.2c-1.7-0.8-3.2-1.8-4.5-3.2c-1.3-1.3-2.3-2.9-3-4.7c-0.7-1.8-1.1-3.8-1.1-5.8
		c0-2.1,0.4-4,1.1-5.8s1.7-3.4,3-4.7c1.3-1.3,2.8-2.4,4.5-3.2c1.7-0.8,3.5-1.2,5.5-1.2c1.9,0,3.6,0.4,5.3,1.1
		c1.7,0.7,3.2,1.8,4.5,3.1c1.3,1.3,2.3,2.9,3.1,4.7S347.1,93.4,347.1,95.6z M340.2,92.8c-0.5-1.8-1.4-3.3-2.8-4.4
		c-1.3-1.1-2.8-1.6-4.5-1.6c-1.6,0-3.1,0.5-4.4,1.6s-2.2,2.5-2.7,4.4H340.2z"/>
	<path class="st1" d="M355.9,109.8h-7v-7.5h7V109.8z"/>
	<path class="st1" d="M383.6,95.7c0,2-0.3,3.9-0.9,5.7s-1.5,3.4-2.6,4.7c-1.1,1.4-2.5,2.4-4,3.2c-1.6,0.8-3.3,1.2-5.1,1.2
		c-1.2,0-2.2-0.2-3.3-0.5c-1-0.3-2-0.9-2.8-1.6v13.8h-6.6V81.3h6.6v1.5c0.8-0.7,1.7-1.2,2.7-1.6c1.1-0.4,2.2-0.6,3.3-0.6
		c1.6,0,3.2,0.4,4.7,1.2c1.5,0.8,2.9,1.8,4.1,3.2c1.2,1.3,2.1,2.9,2.9,4.7C383.3,91.6,383.6,93.5,383.6,95.7z M376.9,95.7
		c0-1.3-0.2-2.6-0.6-3.6c-0.4-1.1-0.9-2-1.5-2.8c-0.7-0.8-1.4-1.4-2.3-1.8s-1.9-0.6-3-0.6c-0.7,0-1.5,0.2-2.4,0.5s-1.7,0.7-2.3,1.3
		v13.6c1.4,1.4,3,2.1,4.8,2.1c1,0,2-0.2,2.9-0.6s1.7-1,2.3-1.8s1.1-1.7,1.5-2.8C376.7,98.1,376.9,97,376.9,95.7z"/>
	<path class="st1" d="M412.8,95.6c0,0.5,0,0.9-0.1,1.4c0,0.5-0.1,1-0.2,1.5h-21.1c0.2,0.8,0.6,1.6,1,2.3c0.4,0.7,1,1.4,1.6,1.9
		s1.4,1,2.2,1.3c0.8,0.3,1.7,0.5,2.7,0.5c1.2,0,2.4-0.2,3.6-0.7c1.2-0.4,2.2-1,3-1.8l4.2,4.5c-1.8,1.5-3.6,2.5-5.4,3.1
		s-3.6,0.9-5.6,0.9s-3.8-0.4-5.6-1.2c-1.7-0.8-3.2-1.8-4.5-3.2c-1.3-1.3-2.3-2.9-3-4.7s-1.1-3.8-1.1-5.8c0-2.1,0.4-4,1.1-5.8
		s1.7-3.4,3-4.7c1.3-1.3,2.8-2.4,4.5-3.2c1.7-0.8,3.5-1.2,5.5-1.2c1.9,0,3.6,0.4,5.3,1.1c1.7,0.7,3.2,1.8,4.5,3.1
		c1.3,1.3,2.3,2.9,3.1,4.7S412.8,93.4,412.8,95.6z M405.9,92.8c-0.5-1.8-1.4-3.3-2.8-4.4c-1.3-1.1-2.8-1.6-4.5-1.6
		c-1.6,0-3.1,0.5-4.4,1.6s-2.2,2.5-2.7,4.4H405.9z"/>
</g>
<path class="st0" d="M40.2,154.1h-9.6c-4.7,0-8.4-3.8-8.4-8.4v-49c0-5.2,4.2-9.4,9.4-9.4h7.6c5.2,0,9.4,4.2,9.4,9.4v49
	C48.6,150.3,44.8,154.1,40.2,154.1z"/>
<path class="st0" d="M71.8,154.1H61.5c-4.5,0-8.1-3.6-8.1-8.1V43.5c0-5,4.1-9.1,9.1-9.1h8.3c5,0,9.1,4.1,9.1,9.1V146
	C79.8,150.5,76.2,154.1,71.8,154.1z"/>
<path class="st0" d="M103.7,154.1H92.8c-4.3,0-7.7-3.5-7.7-7.7V74.6c0-4.8,3.9-8.7,8.7-8.7h8.9c4.8,0,8.7,3.9,8.7,8.7v71.7
	C111.5,150.6,108,154.1,103.7,154.1z"/>
<path class="st2" d="M35.7,84.8h-0.6c-0.3,0-0.5-0.2-0.5-0.5v-8.8c0-4.7,3.8-8.6,8.6-8.6h4.9c0.3,0,0.5,0.2,0.5,0.5V68
	c0,0.3-0.2,0.5-0.5,0.5h-4.9c-3.8,0-7,3.1-7,7v8.8C36.2,84.6,36,84.8,35.7,84.8z"/>
<path class="st2" d="M97.7,62.1h-0.6c-0.3,0-0.5-0.2-0.5-0.5V27.3c0-3.4-2.7-6.1-6.1-6.1H77.2c-3.4,0-6.1,2.7-6.1,6.1v3
	c0,0.3-0.2,0.5-0.5,0.5H70c-0.3,0-0.5-0.2-0.5-0.5v-3c0-4.2,3.4-7.7,7.7-7.7h13.4c4.2,0,7.7,3.4,7.7,7.7v34.3
	C98.2,61.9,98,62.1,97.7,62.1z"/>
<path class="st0" d="M91,152.4l16.8,13.3c0.8,0.6,1.9-0.1,1.7-1l-2.5-14L91,152.4z"/>
<path class="st3" d="M43.7,64h-0.6c-0.3,0-0.5-0.2-0.5-0.5V32.6c0-3.3,2.7-5.9,5.9-5.9H60c2.6,0,4.7,2.1,4.7,4.7l0,0
	c0,0.3-0.2,0.5-0.5,0.5h-0.6c-0.3,0-0.5-0.2-0.5-0.5l0,0c0-1.7-1.4-3.1-3.1-3.1H48.5c-2.4,0-4.3,1.9-4.3,4.3v30.9
	C44.2,63.8,44,64,43.7,64z"/>
</svg>
