<?xml version="1.0" encoding="utf-8"?>
<!-- Generator: Adobe Illustrator 20.1.0, SVG Export Plug-In . SVG Version: 6.00 Build 0)  -->
<svg version="1.1" id="Layer_1" xmlns="http://www.w3.org/2000/svg" xmlns:xlink="http://www.w3.org/1999/xlink" x="0px" y="0px"
	 viewBox="0 0 132.5 176.9" style="enable-background:new 0 0 132.5 176.9;" xml:space="preserve">
<style type="text/css">
	.st0{fill:#009FE3;}
	.st1{opacity:0.8;fill:#808080;enable-background:new    ;}
	.st2{opacity:0.5;fill:#808080;enable-background:new    ;}
</style>
<g>
	<path class="st0" d="M39.6,149.8H30c-4.7,0-8.4-3.8-8.4-8.4v-49c0-5.2,4.2-9.4,9.4-9.4h7.6c5.2,0,9.4,4.2,9.4,9.4v49
		C48,146,44.2,149.8,39.6,149.8z"/>
	<path class="st0" d="M71.2,149.8H60.9c-4.5,0-8.1-3.6-8.1-8.1V39.2c0-5,4.1-9.1,9.1-9.1h8.3c5,0,9.1,4.1,9.1,9.1v102.5
		C79.2,146.2,75.6,149.8,71.2,149.8z"/>
	<path class="st0" d="M103.1,149.8H92.2c-4.3,0-7.7-3.5-7.7-7.7V70.3c0-4.8,3.9-8.7,8.7-8.7h8.9c4.8,0,8.7,3.9,8.7,8.7V142
		C110.9,146.3,107.4,149.8,103.1,149.8z"/>
	<path class="st1" d="M35.1,80.5h-0.6c-0.3,0-0.5-0.2-0.5-0.5v-8.8c0-4.7,3.8-8.6,8.6-8.6h4.9c0.3,0,0.5,0.2,0.5,0.5v0.6
		c0,0.3-0.2,0.5-0.5,0.5h-4.9c-3.8,0-7,3.1-7,7V80C35.6,80.3,35.4,80.5,35.1,80.5z"/>
	<path class="st1" d="M97.1,57.8h-0.6c-0.3,0-0.5-0.2-0.5-0.5V23c0-3.4-2.7-6.1-6.1-6.1H76.6c-3.4,0-6.1,2.7-6.1,6.1v3
		c0,0.3-0.2,0.5-0.5,0.5h-0.6c-0.3,0-0.5-0.2-0.5-0.5v-3c0-4.2,3.4-7.7,7.7-7.7H90c4.2,0,7.7,3.4,7.7,7.7v34.3
		C97.6,57.6,97.4,57.8,97.1,57.8z"/>
	<path class="st0" d="M90.4,148.1l16.8,13.3c0.8,0.6,1.9-0.1,1.7-1l-2.5-14L90.4,148.1z"/>
	<path class="st2" d="M43.1,59.7h-0.6c-0.3,0-0.5-0.2-0.5-0.5V28.3c0-3.3,2.7-5.9,5.9-5.9h11.5c2.6,0,4.7,2.1,4.7,4.7l0,0
		c0,0.3-0.2,0.5-0.5,0.5H63c-0.3,0-0.5-0.2-0.5-0.5l0,0c0-1.7-1.4-3.1-3.1-3.1H47.9c-2.4,0-4.3,1.9-4.3,4.3v30.9
		C43.6,59.5,43.4,59.7,43.1,59.7z"/>
</g>
</svg>
