<?xml version="1.0" encoding="utf-8"?>
<!-- Generator: Adobe Illustrator 19.1.1, SVG Export Plug-In . SVG Version: 6.00 Build 0)  -->
<svg version="1.1" id="Layer_1" xmlns="http://www.w3.org/2000/svg" xmlns:xlink="http://www.w3.org/1999/xlink" x="0px" y="0px"
	 viewBox="0 0 429.5 176.9" style="enable-background:new 0 0 429.5 176.9;" xml:space="preserve">
<style type="text/css">
	.st0{fill:#009FE3;}
	.st1{fill:#808080;}
	.st2{fill:#FFFFFF;}
	.st3{opacity:0.8;fill:#C6C6C6;}
	.st4{opacity:0.5;fill:#C6C6C6;}
	.st5{opacity:0.8;fill:#808080;}
	.st6{opacity:0.5;fill:#808080;}
	.st7{opacity:0.8;fill:#FFFFFF;}
	.st8{opacity:0.5;fill:#FFFFFF;}
	.st9{fill:#1E2022;}
	.st10{opacity:0.8;fill:#1E2022;}
	.st11{opacity:0.5;fill:#1E2022;}
	.st12{fill:#1A1A1A;}
	.st13{fill:#000014;}
</style>
<g>
	<path class="st2" d="M156.4,109.4h-7.8L138,96.6v12.7h-6.7V68.6h6.7V93l9.2-12h7.7L144,94.8L156.4,109.4z"/>
	<path class="st2" d="M182.2,95.2c0,2.1-0.4,4.1-1.1,5.9c-0.7,1.8-1.7,3.4-3,4.7c-1.3,1.3-2.8,2.4-4.5,3.1c-1.7,0.8-3.6,1.2-5.5,1.2
		c-2,0-3.8-0.4-5.5-1.2c-1.7-0.8-3.2-1.8-4.5-3.2c-1.3-1.3-2.3-2.9-3-4.7c-0.7-1.8-1.1-3.8-1.1-5.9c0-2.1,0.4-4,1.1-5.8
		c0.7-1.8,1.8-3.4,3-4.8c1.3-1.4,2.8-2.4,4.5-3.2c1.7-0.8,3.5-1.2,5.4-1.2c2,0,3.8,0.4,5.5,1.2c1.7,0.8,3.2,1.8,4.5,3.1
		c1.3,1.3,2.3,2.9,3,4.7S182.2,93.1,182.2,95.2z M175.6,95.2c0-1.2-0.2-2.3-0.6-3.4c-0.4-1-0.9-2-1.6-2.8c-0.7-0.8-1.5-1.4-2.4-1.8
		c-0.9-0.4-1.9-0.7-2.9-0.7c-1,0-2,0.2-2.9,0.7c-0.9,0.4-1.7,1.1-2.4,1.8c-0.7,0.8-1.2,1.7-1.6,2.8c-0.4,1-0.6,2.2-0.6,3.4
		c0,1.2,0.2,2.3,0.6,3.4c0.4,1,0.9,2,1.6,2.8c0.7,0.8,1.5,1.4,2.4,1.8c0.9,0.4,1.9,0.7,2.9,0.7c1,0,2-0.2,2.9-0.7
		c0.9-0.4,1.7-1.1,2.4-1.8c0.7-0.8,1.2-1.7,1.6-2.8C175.4,97.5,175.6,96.4,175.6,95.2z"/>
	<path class="st2" d="M208.1,109.4h-6.6v-17c0-1-0.1-1.9-0.4-2.7c-0.3-0.8-0.7-1.4-1.2-1.9c-0.5-0.5-1-0.9-1.7-1.1
		c-0.6-0.2-1.3-0.4-2-0.4c-1,0-2,0.2-3,0.6c-1,0.4-1.9,1-2.7,1.8v20.7H184V80.9h6.6l0,2.1c0.4-0.4,0.9-0.8,1.5-1.2
		c0.6-0.4,1.2-0.7,1.8-0.9c0.6-0.2,1.3-0.4,1.9-0.6c0.7-0.1,1.3-0.2,1.9-0.2c1.3,0,2.6,0.2,3.9,0.7c1.2,0.5,2.3,1.2,3.3,2.1
		c1,1,1.7,2.2,2.3,3.7c0.6,1.5,0.9,3.3,0.9,5.4V109.4z"/>
	<path class="st2" d="M230.2,101.4c0,1.4-0.3,2.7-0.9,3.8c-0.6,1.1-1.4,2-2.4,2.8c-1,0.7-2.1,1.3-3.3,1.7c-1.2,0.4-2.4,0.6-3.6,0.6
		c-2,0-3.9-0.4-5.6-1.2c-1.7-0.8-3.2-2.1-4.5-3.9l4-4.3c0.8,1.1,1.7,1.9,2.7,2.5c1,0.6,2.1,0.9,3.3,0.9c1,0,1.9-0.2,2.6-0.6
		c0.7-0.4,1-1,1-1.8c0-0.9-0.5-1.6-1.5-2.1c-1-0.6-2.3-1.1-4.1-1.7c-1-0.3-2-0.7-3-1.3c-1-0.5-1.8-1.1-2.6-1.9
		c-0.8-0.7-1.4-1.6-1.8-2.5c-0.5-1-0.7-2-0.7-3.3c0-1.4,0.3-2.6,0.9-3.7c0.6-1.1,1.4-2,2.3-2.8c1-0.7,2.1-1.3,3.3-1.7
		c1.2-0.4,2.5-0.6,3.7-0.6c4,0,7.3,1.6,9.9,4.9l-3.9,4.3c-0.8-1-1.6-1.8-2.6-2.4c-1-0.6-2-0.9-3.2-0.9c-0.4,0-0.8,0.1-1.3,0.2
		c-0.4,0.1-0.9,0.3-1.2,0.5c-0.4,0.2-0.7,0.5-0.9,0.8c-0.2,0.3-0.4,0.7-0.4,1.2c0,0.8,0.5,1.4,1.4,2c0.9,0.6,2.3,1.1,4,1.7
		c1.1,0.4,2.2,0.8,3.2,1.4c1,0.6,1.9,1.2,2.7,1.9c0.8,0.7,1.4,1.6,1.8,2.5C230,99.2,230.2,100.2,230.2,101.4z"/>
	<path class="st2" d="M246.7,108.7c-0.7,0.5-1.4,0.8-2.3,1c-0.9,0.2-1.8,0.3-2.7,0.3c-1.6,0-2.9-0.2-3.9-0.6c-1.1-0.4-1.9-1-2.6-1.9
		c-0.6-0.9-1.1-1.9-1.4-3.2c-0.3-1.3-0.4-2.9-0.4-4.6V87.3h-3.5v-3.2c2.1-1,3.9-2.4,5.2-4.2s2.2-4.3,2.7-7.3h2.1v8.3h6.7v6.4H240
		v12.9c0,0.7,0.1,1.3,0.3,1.8c0.2,0.5,0.4,0.8,0.7,1.1c0.3,0.3,0.6,0.4,0.9,0.5c0.3,0.1,0.7,0.1,1.1,0.1c0.5,0,1.1-0.1,1.9-0.3
		c0.7-0.2,1.4-0.5,1.9-1V108.7z"/>
	<path class="st2" d="M267.3,83.9l-3.5,6c-0.6-0.8-1.3-1.4-2.1-2c-0.8-0.6-1.6-0.9-2.4-0.9c-0.4,0-0.9,0.1-1.4,0.3
		c-0.5,0.2-1,0.6-1.4,1.1c-0.4,0.5-0.8,1.1-1.1,1.9c-0.3,0.8-0.5,1.8-0.5,3v16h-6.6V80.9h6.6v3c0.8-1.2,1.7-2.1,2.6-2.8
		c1-0.7,2-1,3.2-1c1.2,0,2.3,0.3,3.4,1C265.3,81.9,266.3,82.8,267.3,83.9z"/>
	<path class="st2" d="M290.8,109.4h-6.6v-2.2c-0.4,0.5-0.9,0.9-1.5,1.2c-0.6,0.3-1.2,0.6-1.8,0.9c-0.6,0.2-1.3,0.4-1.9,0.6
		c-0.7,0.1-1.3,0.2-1.9,0.2c-1.3,0-2.6-0.2-3.9-0.7c-1.2-0.5-2.3-1.2-3.3-2.1c-0.9-1-1.7-2.2-2.3-3.7c-0.6-1.5-0.8-3.3-0.8-5.4V80.9
		h6.6v16.9c0,1,0.1,1.9,0.4,2.7c0.3,0.8,0.7,1.4,1.1,1.9c0.5,0.5,1,0.9,1.6,1.1c0.6,0.2,1.3,0.4,1.9,0.4c2.1,0,4-0.8,5.5-2.4V80.9
		h6.6V109.4z"/>
	<path class="st2" d="M318,80.9l-11.9,33.8c-0.9,2.5-2,4.3-3.5,5.5c-1.4,1.1-3.1,1.7-5.1,1.7c-0.3,0-0.6,0-1-0.1
		c-0.4,0-0.7-0.1-1.1-0.2l-2.2-6.6c0.5,0.3,1.1,0.5,1.6,0.6c0.5,0.1,1.1,0.2,1.6,0.2c1,0,2-0.3,2.8-0.8c0.9-0.5,1.5-1.4,2-2.8
		l0.9-2.9l-10.2-28.4h7.2l6.1,18.3l5.7-18.3H318z"/>
	<path class="st2" d="M345.9,95.1c0,0.5,0,0.9-0.1,1.4c0,0.5-0.1,1-0.2,1.5h-21.1c0.2,0.8,0.6,1.6,1,2.3c0.4,0.7,1,1.4,1.6,1.9
		c0.6,0.5,1.4,1,2.2,1.3c0.8,0.3,1.7,0.5,2.7,0.5c1.2,0,2.4-0.2,3.6-0.7c1.2-0.4,2.2-1,3-1.8l4.2,4.5c-1.8,1.5-3.6,2.5-5.4,3.1
		c-1.8,0.6-3.6,0.9-5.6,0.9c-2,0-3.8-0.4-5.6-1.2c-1.7-0.8-3.2-1.8-4.5-3.2c-1.3-1.3-2.3-2.9-3-4.7s-1.1-3.8-1.1-5.8s0.4-4,1.1-5.8
		c0.7-1.8,1.7-3.4,3-4.7c1.3-1.3,2.8-2.4,4.5-3.2c1.7-0.8,3.5-1.2,5.5-1.2c1.9,0,3.6,0.4,5.3,1.1c1.7,0.7,3.2,1.8,4.5,3.1
		c1.3,1.3,2.3,2.9,3.1,4.7S345.9,92.9,345.9,95.1z M339,92.4c-0.5-1.8-1.4-3.3-2.8-4.4c-1.3-1.1-2.8-1.6-4.5-1.6
		c-1.6,0-3.1,0.5-4.4,1.6c-1.3,1.1-2.2,2.5-2.7,4.4H339z"/>
	<path class="st2" d="M354.8,109.4h-7v-7.5h7V109.4z"/>
	<path class="st2" d="M382.5,95.2c0,2-0.3,3.9-0.9,5.7s-1.5,3.4-2.6,4.7c-1.1,1.4-2.5,2.4-4,3.2c-1.6,0.8-3.3,1.2-5.1,1.2
		c-1.2,0-2.2-0.2-3.3-0.5c-1-0.3-2-0.9-2.8-1.6l0,13.8H357V80.9h6.6l0,1.5c0.8-0.7,1.7-1.2,2.7-1.6c1.1-0.4,2.2-0.6,3.3-0.6
		c1.6,0,3.2,0.4,4.7,1.2c1.5,0.8,2.9,1.8,4.1,3.2c1.2,1.3,2.1,2.9,2.9,4.7C382.1,91.1,382.5,93.1,382.5,95.2z M375.7,95.3
		c0-1.3-0.2-2.6-0.6-3.6c-0.4-1.1-0.9-2-1.5-2.8c-0.7-0.8-1.4-1.4-2.3-1.8c-0.9-0.4-1.9-0.6-3-0.6c-0.7,0-1.5,0.2-2.4,0.5
		c-0.9,0.3-1.7,0.7-2.3,1.3v13.6c1.4,1.4,3,2.1,4.8,2.1c1,0,2-0.2,2.9-0.6c0.9-0.4,1.7-1,2.3-1.8s1.1-1.7,1.5-2.8
		C375.6,97.7,375.7,96.5,375.7,95.3z"/>
	<path class="st2" d="M411.6,95.1c0,0.5,0,0.9-0.1,1.4c0,0.5-0.1,1-0.2,1.5h-21.1c0.2,0.8,0.6,1.6,1,2.3c0.4,0.7,1,1.4,1.6,1.9
		c0.6,0.5,1.4,1,2.2,1.3c0.8,0.3,1.7,0.5,2.7,0.5c1.2,0,2.4-0.2,3.6-0.7c1.2-0.4,2.2-1,3-1.8l4.2,4.5c-1.8,1.5-3.6,2.5-5.4,3.1
		c-1.8,0.6-3.6,0.9-5.6,0.9c-2,0-3.8-0.4-5.6-1.2c-1.7-0.8-3.2-1.8-4.5-3.2c-1.3-1.3-2.3-2.9-3-4.7s-1.1-3.8-1.1-5.8s0.4-4,1.1-5.8
		c0.7-1.8,1.7-3.4,3-4.7c1.3-1.3,2.8-2.4,4.5-3.2c1.7-0.8,3.5-1.2,5.5-1.2c1.9,0,3.6,0.4,5.3,1.1c1.7,0.7,3.2,1.8,4.5,3.1
		c1.3,1.3,2.3,2.9,3.1,4.7S411.6,92.9,411.6,95.1z M404.7,92.4c-0.5-1.8-1.4-3.3-2.8-4.4c-1.3-1.1-2.8-1.6-4.5-1.6
		c-1.6,0-3.1,0.5-4.4,1.6c-1.3,1.1-2.2,2.5-2.7,4.4H404.7z"/>
</g>
<path class="st2" d="M47.1,153.6h-9.6c-4.7,0-8.4-3.8-8.4-8.4v-49c0-5.2,4.2-9.4,9.4-9.4h7.6c5.2,0,9.4,4.2,9.4,9.4v49
	C55.5,149.9,51.8,153.6,47.1,153.6z"/>
<path class="st2" d="M78.7,153.6H68.4c-4.5,0-8.1-3.6-8.1-8.1V43c0-5,4.1-9.1,9.1-9.1h8.3c5,0,9.1,4.1,9.1,9.1v102.6
	C86.8,150,83.1,153.6,78.7,153.6z"/>
<path class="st2" d="M110.6,153.6H99.7c-4.3,0-7.7-3.5-7.7-7.7V74.2c0-4.8,3.9-8.7,8.7-8.7h8.9c4.8,0,8.7,3.9,8.7,8.7v71.7
	C118.4,150.2,114.9,153.6,110.6,153.6z"/>
<path class="st7" d="M42.6,84.4H42c-0.3,0-0.5-0.2-0.5-0.5V75c0-4.7,3.8-8.6,8.6-8.6H55c0.3,0,0.5,0.2,0.5,0.5v0.6
	c0,0.3-0.2,0.5-0.5,0.5h-4.9c-3.8,0-7,3.1-7,7v8.8C43.1,84.1,42.9,84.4,42.6,84.4z"/>
<path class="st7" d="M104.7,61.7h-0.6c-0.3,0-0.5-0.2-0.5-0.5V26.9c0-3.4-2.7-6.1-6.1-6.1H84.1c-3.4,0-6.1,2.7-6.1,6.1v3
	c0,0.3-0.2,0.5-0.5,0.5H77c-0.3,0-0.5-0.2-0.5-0.5v-3c0-4.2,3.4-7.7,7.7-7.7h13.4c4.2,0,7.7,3.4,7.7,7.7v34.3
	C105.2,61.4,104.9,61.7,104.7,61.7z"/>
<path class="st2" d="M98,151.9l16.8,13.3c0.8,0.6,1.9-0.1,1.7-1l-2.5-14L98,151.9z"/>
<path class="st8" d="M50.6,63.5H50c-0.3,0-0.5-0.2-0.5-0.5V32.1c0-3.3,2.7-5.9,5.9-5.9H67c2.6,0,4.7,2.1,4.7,4.7v0
	c0,0.3-0.2,0.5-0.5,0.5h-0.6c-0.3,0-0.5-0.2-0.5-0.5v0c0-1.7-1.4-3.1-3.1-3.1H55.4c-2.4,0-4.3,1.9-4.3,4.3V63
	C51.1,63.3,50.9,63.5,50.6,63.5z"/>
</svg>
